<?xml version="1.0" standalone="no"?><!DOCTYPE svg PUBLIC "-//W3C//DTD SVG 1.1//EN" "http://www.w3.org/Graphics/SVG/1.1/DTD/svg11.dtd"><svg class="icon" width="200px" height="200.00px" viewBox="0 0 1024 1024" version="1.1" xmlns="http://www.w3.org/2000/svg"><path d="M511.995 72.37c-247.68 0-448.464 173.086-448.464 386.606 0 309.906 278.362 367.349 448.464 492.655C693.15 799.81 960.469 773.3 960.469 458.976c0-213.52-200.791-386.607-448.474-386.607zM301.328 559.805c-50.468 0-91.371-40.91-91.371-91.371 0-50.463 40.903-91.368 91.37-91.368 50.462 0 91.372 40.905 91.372 91.368 0 50.461-40.91 91.37-91.371 91.37z m226.752 0c-50.462 0-91.368-40.91-91.368-91.371 0-50.463 40.906-91.368 91.368-91.368 50.462 0 91.371 40.905 91.371 91.368 0 50.461-40.91 91.37-91.37 91.37z m217.298 0c-50.467 0-91.373-40.91-91.373-91.371 0-50.463 40.911-91.368 91.373-91.368s91.372 40.905 91.372 91.368c0 50.461-40.911 91.37-91.372 91.37z m0 0" fill="#CDD5E0" /></svg>